<?xml version="1.0" standalone="no"?>
<!DOCTYPE svg PUBLIC "-//W3C//DTD SVG 20010904//EN"
 "http://www.w3.org/TR/2001/REC-SVG-20010904/DTD/svg10.dtd">
<svg version="1.0" xmlns="http://www.w3.org/2000/svg"
 width="16" height="16" viewBox="0 0 512 512"
 preserveAspectRatio="xMidYMid meet">
<metadata>
Created by potrace 1.16, written by Peter Selinger 2001-2019
</metadata>
<g transform="translate(0,512) scale(0.1,-0.1)"
fill="#000000" stroke="none">
<path d="M2285 5064 c-222 -32 -423 -70 -435 -83 -3 -4 -59 -23 -125 -45 -66
-21 -129 -44 -140 -50 -11 -7 -60 -30 -110 -51 -49 -21 -92 -42 -95 -45 -3 -4
-27 -19 -55 -33 -67 -34 -206 -125 -280 -182 -223 -173 -454 -418 -574 -610
-24 -38 -47 -72 -51 -75 -4 -3 -22 -34 -40 -70 -18 -36 -36 -67 -40 -70 -4 -3
-27 -50 -50 -105 -23 -55 -46 -105 -51 -111 -11 -13 -79 -220 -79 -239 0 -7
-4 -15 -9 -17 -12 -4 -56 -221 -76 -371 -20 -157 -20 -507 0 -664 20 -150 64
-367 76 -371 5 -2 9 -10 9 -17 0 -19 68 -226 79 -239 5 -6 28 -56 51 -111 23
-55 46 -102 50 -105 4 -3 22 -34 40 -70 18 -36 36 -67 40 -70 4 -3 27 -36 51
-75 120 -192 351 -437 574 -610 74 -57 213 -148 280 -182 28 -14 52 -29 55
-33 3 -3 46 -24 95 -45 50 -21 99 -44 110 -51 11 -6 74 -29 140 -50 66 -22
122 -42 125 -45 7 -7 178 -44 305 -66 144 -25 656 -25 800 0 127 22 298 59
305 66 3 3 59 23 125 45 66 21 129 44 140 50 11 7 61 30 110 51 50 21 92 42
95 45 3 4 28 19 55 33 67 34 206 125 280 182 223 173 454 418 574 610 24 39
47 72 51 75 4 3 22 34 40 70 18 36 36 67 40 70 4 3 27 50 50 105 23 55 46 105
51 111 11 13 79 220 79 239 0 7 4 15 9 17 12 4 56 221 76 371 20 157 20 507 0
664 -20 150 -64 367 -76 371 -5 2 -9 10 -9 17 0 19 -68 226 -79 239 -5 6 -28
56 -51 111 -23 55 -46 102 -50 105 -4 3 -22 34 -40 70 -18 36 -36 67 -40 70
-4 3 -27 37 -51 75 -120 192 -351 437 -574 610 -74 57 -213 148 -280 182 -27
14 -52 29 -55 33 -3 3 -45 24 -95 45 -49 21 -99 44 -110 51 -11 6 -74 29 -140
50 -66 22 -122 42 -125 45 -3 3 -50 15 -105 27 -220 48 -281 55 -565 57 -151
2 -288 1 -305 -1z m1475 -763 c47 -12 144 -39 215 -60 72 -21 157 -44 190 -51
33 -6 86 -23 118 -37 45 -21 57 -30 57 -49 0 -12 -56 -107 -123 -211 -499
-761 -929 -1607 -1237 -2436 -24 -63 -39 -91 -54 -97 -14 -5 -93 4 -211 24
-105 18 -224 37 -266 43 -45 6 -87 18 -103 29 -40 29 -65 92 -87 216 -56 319
-219 876 -378 1298 -40 104 -67 188 -62 193 5 5 148 -4 328 -21 206 -20 322
-27 330 -21 17 15 23 -1 70 -186 50 -200 154 -555 163 -555 9 0 709 1610 747
1717 39 112 74 181 105 209 40 37 34 37 198 -5z m-1077 -226 c122 -16 289 -54
356 -81 l41 -16 0 -169 c0 -93 -2 -169 -4 -169 -2 0 -46 11 -98 25 -407 108
-765 112 -1078 13 -463 -147 -766 -512 -847 -1023 -19 -122 -22 -423 -4 -545
49 -344 183 -599 411 -783 343 -277 944 -351 1548 -192 52 14 96 25 98 25 2 0
4 -76 4 -170 l0 -169 -77 -25 c-96 -30 -255 -61 -388 -77 -145 -17 -455 -14
-610 6 -591 76 -1020 360 -1234 816 -92 197 -146 423 -160 676 -47 829 312
1463 984 1743 127 53 330 105 465 119 58 6 121 13 140 15 65 8 340 -4 453 -19z"/>
<path d="M3700 4053 c-86 -140 -103 -188 -65 -188 14 0 43 37 107 140 88 140
101 177 63 183 -16 2 -37 -25 -105 -135z"/>
<path d="M3580 4050 c-74 -116 -172 -307 -168 -327 2 -10 13 -19 24 -21 18 -3
30 15 79 110 31 62 81 151 112 197 42 64 53 89 46 101 -22 33 -41 21 -93 -60z"/>
<path d="M2481 1948 c-19 -62 -23 -138 -11 -207 12 -71 26 -89 54 -68 14 10
14 20 4 75 -9 49 -9 79 1 137 13 80 10 95 -19 95 -12 0 -22 -11 -29 -32z"/>
<path d="M2374 1915 c-4 -8 -4 -71 -1 -138 5 -144 27 -227 58 -227 30 0 33 22
13 97 -10 42 -17 109 -18 173 -1 101 -2 105 -24 108 -13 2 -25 -3 -28 -13z"/>
</g>
</svg>
